<svg xmlns="http://www.w3.org/2000/svg" width="89" height="66" viewBox="0 0 89 66" fill="none">
<path d="M4.25256 66L3.64505 63.2372C9.11263 60.7814 13.4664 57.4047 16.7065 53.107C19.9465 48.8093 21.5666 44.4093 21.5666 39.907C21.5666 38.0651 21.1615 36.7349 20.3515 35.9163C19.5415 35.0977 18.124 34.4837 16.099 34.0744C11.0364 33.0512 7.0876 31.107 4.25256 28.2419C1.41752 25.3767 0 21.7954 0 17.4977C0 12.3814 1.62002 8.18605 4.86007 4.91164C8.30262 1.63721 12.6564 0 17.9215 0C23.9966 0 28.9579 2.14884 32.8055 6.44652C36.8555 10.5395 38.8805 16.1674 38.8805 23.3302C38.8805 29.6744 37.3618 35.7116 34.3242 41.4419C31.4892 47.1721 27.4391 52.1861 22.1741 56.4837C17.1115 60.7814 11.1377 63.9535 4.25256 66ZM54.372 66L53.7645 63.2372C59.2321 60.7814 63.5859 57.4047 66.8259 53.107C70.066 48.8093 71.686 44.4093 71.686 39.907C71.686 38.0651 71.281 36.7349 70.471 35.9163C69.661 35.0977 68.2434 34.4837 66.2184 34.0744C61.1558 33.0512 57.207 31.107 54.372 28.2419C51.537 25.3767 50.1194 21.7954 50.1194 17.4977C50.1194 12.3814 51.7395 8.18605 54.9795 4.91164C58.4221 1.63721 62.7759 0 68.041 0C74.116 0 79.0774 2.14884 82.9249 6.44652C86.975 10.5395 89 16.1674 89 23.3302C89 29.6744 87.4812 35.7116 84.4437 41.4419C81.6086 47.1721 77.5586 52.1861 72.2935 56.4837C67.2309 60.7814 61.2571 63.9535 54.372 66Z" fill="#1F2126" fill-opacity="0.04"/>
</svg>
