<svg width="139" height="139" fill="none" viewBox="0 0 139 139" xmlns="http://www.w3.org/2000/svg">
  <path d="M46.076 69.5c0 12.947 10.475 23.421 23.423 23.421 12.947 0 23.422-10.474 23.422-23.422 0-12.947-10.475-23.422-23.422-23.422-12.948 0-23.423 10.458-23.423 23.422Zm88.243-24.993-39.143 2.021c10.626 12.413 10.793 30.322 1.855 44.055l-31.408 48.314c13.03.702 26.463-2.155 38.625-9.222 30.071-17.374 42.267-53.81 30.071-85.168Zm-96.846 38.34L11.326 31.427A69.388 69.388 0 0 0 0 69.499c0 34.749 25.444 63.534 58.706 68.629l17.86-34.982c-16.139 3.04-31.726-5.814-39.094-20.298Zm36.503-47.695 57.537 3.023c-5.881-11.66-15.136-21.801-27.299-28.868C93.204 2.942 81.109-.082 69.248.002c-20.465.083-40.463 9.221-53.811 25.81l21.417 32.895C42.2 43.354 57.704 34.2 73.976 35.151Z" fill="#C1C0B6" fill-opacity=".12"/>
</svg>
