<svg width="251" height="251" viewBox="0 0 251 251" fill="none" xmlns="http://www.w3.org/2000/svg">
<g id="Progress / Circle" clip-path="url(#clip0_6031_17819)">
<path id="Progress" d="M125.425 3.45238C143.167 3.45238 160.695 7.32417 176.787 14.7975C192.878 22.2709 207.145 33.1658 218.591 46.7218" stroke="#1F2126" stroke-opacity="0.15" stroke-width="6.04636" stroke-linecap="round"/>
<path id="Progress_2" d="M232.257 66.6071C242.985 86.1051 248.172 108.167 247.257 130.403C246.341 152.639 239.358 174.2 227.063 192.75" stroke="#1F2126" stroke-opacity="0.15" stroke-width="6.04636" stroke-linecap="round"/>
<path id="Progress_3" d="M210.061 213.164C191.206 231.345 166.999 242.97 141.022 246.321C115.045 249.671 88.6798 244.568 65.8293 231.766" stroke="#1F2126" stroke-opacity="0.15" stroke-width="6.04636" stroke-linecap="round"/>
<path id="Progress_4" d="M49.4169 220.734C29.2594 204.664 14.7133 182.62 7.8678 157.767C1.02227 132.914 2.22954 106.531 11.3162 82.4066" stroke="#1F2126" stroke-opacity="0.15" stroke-width="6.04636" stroke-linecap="round"/>
<path id="Progress_5" d="M19.4117 65.1434C28.4793 49.1869 41.0318 35.4831 56.1335 25.0537C71.2351 14.6244 88.4963 7.73853 106.63 4.90961" stroke="#1F2126" stroke-opacity="0.15" stroke-width="6.04636" stroke-linecap="round"/>
</g>
<defs>
<clipPath id="clip0_6031_17819">
<rect width="250.125" height="249.916" fill="white" transform="translate(0.466797 0.429199)"/>
</clipPath>
</defs>
</svg>
